<svg xmlns="http://www.w3.org/2000/svg" height="512pt" version="1.1" viewBox="-18 0 512 512.00002" width="512pt">
<g id="surface1">
<path d="M 388.414062 512 L 414.898438 512 L 414.898438 459.035156 L 361.929688 459.035156 Z M 388.414062 512 " style=" stroke:none;fill-rule:nonzero;fill:rgb(58.431373%,47.058824%,33.72549%);fill-opacity:1;" />
<path d="M 61.792969 512 L 88.277344 512 L 114.757812 459.035156 L 61.792969 459.035156 Z M 61.792969 512 " style=" stroke:none;fill-rule:nonzero;fill:rgb(58.431373%,47.058824%,33.72549%);fill-opacity:1;" />
<path d="M 26.484375 35.3125 L 26.484375 459.035156 L 238.34375 459.035156 L 238.34375 35.3125 Z M 26.484375 35.3125 " style=" stroke:none;fill-rule:nonzero;fill:rgb(75.294118%,67.058824%,56.862745%);fill-opacity:1;" />
<path d="M 238.34375 459.035156 L 450.207031 459.035156 L 450.207031 35.3125 L 238.34375 35.3125 Z M 238.34375 459.035156 " style=" stroke:none;fill-rule:nonzero;fill:rgb(85.098039%,80%,73.72549%);fill-opacity:1;" />
<path d="M 17.65625 0 C 7.90625 0 0 7.90625 0 17.65625 C 0 27.40625 7.90625 35.3125 17.65625 35.3125 L 238.34375 35.3125 L 238.34375 0 Z M 17.65625 0 " style=" stroke:none;fill-rule:nonzero;fill:rgb(50.196078%,40.392157%,28.627451%);fill-opacity:1;" />
<path d="M 459.035156 0 L 238.34375 0 L 238.34375 35.3125 L 459.035156 35.3125 C 468.785156 35.3125 476.691406 27.40625 476.691406 17.65625 C 476.691406 7.90625 468.785156 0 459.035156 0 Z M 459.035156 0 " style=" stroke:none;fill-rule:nonzero;fill:rgb(58.431373%,47.058824%,33.72549%);fill-opacity:1;" />
<path d="M 203.035156 300.136719 C 198.160156 300.136719 194.207031 296.1875 194.207031 291.308594 L 194.207031 220.691406 C 194.207031 215.816406 198.160156 211.863281 203.035156 211.863281 C 207.910156 211.863281 211.863281 215.8125 211.863281 220.691406 L 211.863281 291.308594 C 211.863281 296.1875 207.910156 300.136719 203.035156 300.136719 Z M 203.035156 300.136719 " style=" stroke:none;fill-rule:nonzero;fill:rgb(45.882353%,29.803922%,16.078431%);fill-opacity:1;" />
<path d="M 273.65625 300.136719 C 268.78125 300.136719 264.828125 296.1875 264.828125 291.308594 L 264.828125 220.691406 C 264.828125 215.816406 268.777344 211.863281 273.65625 211.863281 C 278.53125 211.863281 282.484375 215.8125 282.484375 220.691406 L 282.484375 291.308594 C 282.484375 296.1875 278.53125 300.136719 273.65625 300.136719 Z M 273.65625 300.136719 " style=" stroke:none;fill-rule:nonzero;fill:rgb(45.882353%,29.803922%,16.078431%);fill-opacity:1;" />
</g>
</svg>