<svg xmlns="http://www.w3.org/2000/svg" height="512pt" version="1.1" viewBox="0 -53 512.00091 512" width="512pt">
<g id="surface1">
<path d="M 317.792969 194.207031 L 79.449219 194.207031 C 74.574219 194.207031 70.621094 190.257812 70.621094 185.378906 C 70.621094 180.503906 74.574219 176.554688 79.449219 176.554688 L 317.792969 176.554688 C 322.667969 176.554688 326.621094 180.503906 326.621094 185.378906 C 326.621094 190.257812 322.667969 194.207031 317.792969 194.207031 Z M 317.792969 194.207031 " style=" stroke:none;fill-rule:nonzero;fill:rgb(85.098039%,80%,73.72549%);fill-opacity:1;" />
<path d="M 61.792969 35.3125 L 0 406.070312 L 26.484375 406.070312 L 105.929688 105.933594 L 256 105.933594 L 256 35.3125 Z M 61.792969 35.3125 " style=" stroke:none;fill-rule:nonzero;fill:rgb(75.294118%,67.058824%,56.862745%);fill-opacity:1;" />
<path d="M 256 0 L 17.65625 0 C 7.90625 0 0 7.90625 0 17.65625 C 0 27.40625 7.90625 35.3125 17.65625 35.3125 L 256 35.3125 Z M 256 0 " style=" stroke:none;fill-rule:nonzero;fill:rgb(50.196078%,40.392157%,28.627451%);fill-opacity:1;" />
<path d="M 450.207031 35.3125 L 494.34375 35.3125 C 504.097656 35.3125 512 27.40625 512 17.65625 C 512 7.90625 504.097656 0 494.34375 0 L 256 0 L 256 35.3125 Z M 450.207031 35.3125 " style=" stroke:none;fill-rule:nonzero;fill:rgb(58.431373%,47.058824%,33.72549%);fill-opacity:1;" />
<path d="M 256 35.3125 L 256 105.933594 L 406.070312 105.933594 L 485.515625 406.070312 L 512 406.070312 L 450.207031 35.3125 Z M 256 35.3125 " style=" stroke:none;fill-rule:nonzero;fill:rgb(85.098039%,80%,73.72549%);fill-opacity:1;" />
<path d="M 388.414062 194.207031 L 353.101562 194.207031 C 348.226562 194.207031 344.273438 190.257812 344.273438 185.378906 C 344.273438 180.503906 348.226562 176.554688 353.101562 176.554688 L 388.414062 176.554688 C 393.289062 176.554688 397.242188 180.503906 397.242188 185.378906 C 397.242188 190.257812 393.289062 194.207031 388.414062 194.207031 Z M 388.414062 194.207031 " style=" stroke:none;fill-rule:nonzero;fill:rgb(85.098039%,80%,73.72549%);fill-opacity:1;" />
</g>
</svg>